<?xml version="1.0"?>
<svg xmlns="http://www.w3.org/2000/svg" xmlns:xlink="http://www.w3.org/1999/xlink" xmlns:svgjs="http://svgjs.com/svgjs" version="1.1" width="512" height="512" x="0" y="0" viewBox="0 0 506.073 506.073" style="enable-background:new 0 0 512 512" xml:space="preserve" class=""><g><g xmlns="http://www.w3.org/2000/svg" id="XMLID_51_"><path id="XMLID_72_" d="m468.432 382.222-43.902-83.573-23.247 12.879c-19.906-76.098-92.839-160.733-96.221-164.626l-11.792-13.574-11.24 14.035c-.082.102-5.027 6.279-11.066 13.93-15.302-20.582-26.713-34.403-27.303-35.116l-11.556-13.966-11.557 13.965c-1.092 1.319-27.036 32.754-53.408 71.904-34.36 51.009-52.793 90.52-54.879 117.587l-30.717-17.018-43.902 83.573 56.467 30.518h-47.715v93.333h414v-93.333h-48.429zm-40.347-12.296-79.218 42.813h-68.364l131.733-72.983zm-175.048 23.734-36.935-20.463c11.257-20.264 26.635-41.293 37.016-54.726 10.458 13.357 25.938 34.28 37.234 54.515zm-110.98-72.967c0-11.813 6.474-41.249 49.832-105.656 15.038-22.338 30.217-42.428 40.216-55.243 6.882 8.819 16.212 21.076 26.238 35.112l11.757 16.46 12.336-16.031c3.585-4.659 7.714-9.929 11.477-14.699 22.097 27.948 69.236 92.382 80.124 145.985l-57.446 31.827c-20.01-35.859-50.686-71.934-52.15-73.648l-11.488-13.449-11.392 13.531c-1.448 1.72-31.789 37.919-51.701 73.776l-47.28-26.194c-.465-3.324-.523-6.525-.523-11.771zm-64.069 49.233 15.849-30.17 131.734 72.983h-68.364zm352.406 72.814v33.333h-354v-33.333z" fill="#8a1715" data-original="#000000" style="" class=""/><path id="XMLID_81_" d="m151.706 141.403c27.582 0 50.021-22.439 50.021-50.021 0-11.602-6.489-25.839-20.421-44.806-9.144-12.447-18.188-22.292-18.569-22.705l-11.031-11.97-11.031 11.97c-.38.413-9.425 10.257-18.569 22.705-13.932 18.967-20.421 33.204-20.421 44.806 0 27.581 22.44 50.021 50.021 50.021zm0-84.266c11.463 14.473 20.021 28.751 20.021 34.245 0 11.04-8.981 20.021-20.021 20.021s-20.021-8.981-20.021-20.021c0-5.494 8.558-19.773 20.021-34.245z" fill="#8a1715" data-original="#000000" style="" class=""/><path id="XMLID_84_" d="m337.281 105.22c22.505 0 40.814-18.309 40.814-40.814 0-9.434-5.026-20.67-15.818-35.362-6.868-9.35-13.679-16.762-13.965-17.073l-11.031-11.971-11.031 11.971c-.287.311-7.097 7.724-13.965 17.073-10.792 14.691-15.818 25.927-15.818 35.361.001 22.506 18.31 40.815 40.814 40.815zm-.008-59.54c5.979 8.069 10.454 15.627 10.823 18.836-.06 5.912-4.888 10.704-10.814 10.704s-10.753-4.792-10.813-10.704c.373-3.257 4.797-10.752 10.804-18.836z" fill="#8a1715" data-original="#000000" style="" class=""/></g></g></svg>
