<?xml version="1.0"?>
<svg xmlns="http://www.w3.org/2000/svg" xmlns:xlink="http://www.w3.org/1999/xlink" xmlns:svgjs="http://svgjs.com/svgjs" version="1.1" width="512" height="512" x="0" y="0" viewBox="0 0 509.67 509.67" style="enable-background:new 0 0 512 512" xml:space="preserve" class=""><g><g xmlns="http://www.w3.org/2000/svg" id="XMLID_21_"><path id="XMLID_47_" d="m140.033 91.432v-21.307c0-18.713-7.285-36.295-20.501-49.499-13.215-13.228-30.798-20.513-49.511-20.513-38.609 0-70.021 31.408-70.021 70.012l.003.009v355.28c0 46.396 37.746 84.143 84.142 84.143h425.525v-418.125zm-110.035-21.304.002-.003c0-22.062 17.954-40.012 40.021-40.012 10.693 0 20.739 4.16 28.297 11.727 7.554 7.547 11.715 17.592 11.715 28.285v295.543c-11.31-7.885-25.054-12.514-39.855-12.514-14.948 0-28.802 4.736-40.174 12.765v-295.791zm449.672 409.429h-287.275c6.367-19.15 23.067-49.65 65.916-59.852 18.161-4.321 34.354 1.984 53.106 9.288 17.608 6.857 37.567 14.628 60.533 12.663 19.653-1.684 39.607-9.565 58.905-17.188 17.545-6.93 35.558-14.041 48.814-14.045v69.134zm0-99.114c-19.091.038-39.712 8.174-59.835 16.123-17.29 6.829-35.168 13.891-50.445 15.199-16.022 1.377-31.109-4.505-47.084-10.728-20.471-7.973-43.675-17.01-70.943-10.517-44.221 10.528-67.089 37.832-78.487 58.883-6.135 11.332-9.657 22.108-11.653 30.152h-77.077c-27.857 0-50.859-21.149-53.813-48.234v-8.313c0-21.977 17.875-39.855 39.846-39.855 21.977 0 39.855 17.879 39.855 39.855h30v-301.576h179.201c-4.86 21.149-7.128 53.983 15.321 78.755 17.03 18.792 35.73 20.694 50.757 22.224 15.468 1.574 24.805 2.524 34.162 19.836 12.06 22.312 34.814 39.278 60.196 45.663v92.533zm0-123.94c-14.331-5.451-26.938-15.818-33.804-28.522-16.911-31.284-40.38-33.672-57.517-35.416-12.927-1.315-22.268-2.266-31.564-12.524-15.854-17.494-10.707-44.656-6.531-58.608h129.416z" fill="#8a1715" data-original="#000000" style=""/><path id="XMLID_238_" d="m301.363 223.875c-17.204-15.639-41.121-20.448-63.974-12.87-19.901 6.601-43.093 29.359-53.946 52.938-8.034 17.454-9.091 34.489-3.056 49.263 5.4 13.221 17.055 22.732 31.176 25.444 2.696.518 5.398.771 8.077.771 11.313 0 22.192-4.526 30.175-12.804 5.899-6.114 13.83-10.678 23.572-13.562 33.37-9.879 42.544-29.671 45.043-40.589 3.865-16.889-2.675-35.509-17.067-48.591zm-12.177 41.9c-1.792 7.828-10.427 14.404-24.314 18.516-14.774 4.373-27.104 11.606-36.648 21.5-4.048 4.197-9.041 3.777-11.002 3.397-1.98-.38-6.827-1.855-9.062-7.326-3.554-8.7-.583-18.602 2.535-25.375 8.421-18.296 26.724-33.885 36.139-37.008 12.43-4.123 25.272-1.657 34.351 6.595 6.387 5.807 9.453 13.356 8.001 19.701z" fill="#8a1715" data-original="#000000" style=""/></g></g></svg>
